# This file uses centimeters as units for non-parametric coordinates.

mtllib isi.mtl
g default
v -0.505159 -0.147102 0.534936
v -0.083004 -0.142322 0.588698
v 0.293341 -0.108643 0.588698
v 0.491042 -0.137542 0.517558
v -0.474625 -0.056470 0.521086
v -0.083004 -0.056470 0.588698
v 0.293341 -0.056470 0.588698
v 0.509162 -0.056470 0.588698
v -0.477549 0.045316 0.526658
v -0.083004 0.056470 0.588698
v 0.293341 0.056470 0.588698
v 0.547988 0.048503 0.566233
v -0.440689 0.105259 0.460338
v -0.083004 0.132678 0.541687
v 0.293341 0.148696 0.588698
v 0.422666 0.126576 0.533051
v -0.526723 0.169411 0.196233
v -0.083004 0.203730 0.196233
v 0.293341 0.169411 0.196233
v 0.560930 0.169411 0.196233
v -0.417694 0.101747 -0.196233
v -0.083004 0.137077 -0.196233
v 0.293341 0.169411 -0.196233
v 0.494752 0.087034 -0.196233
v -0.478838 0.165619 -0.503766
v -0.083004 0.169411 -0.588698
v 0.293341 0.169411 -0.588698
v 0.560930 0.140325 -0.501579
v -0.478586 0.100896 -0.517852
v -0.083004 0.056470 -0.588698
v 0.293341 0.056470 -0.588698
v 0.560930 0.056470 -0.626139
v -0.494383 -0.040722 -0.556615
v -0.083004 -0.056470 -0.588698
v 0.293341 -0.056470 -0.588698
v 0.560930 -0.056470 -0.603674
v -0.419140 -0.114027 -0.491349
v -0.083004 -0.169411 -0.588698
v 0.293341 -0.169411 -0.588698
v 0.516667 -0.169411 -0.541318
v -0.560930 -0.169411 -0.196233
v -0.083004 -0.169411 -0.196233
v 0.293341 -0.169411 -0.196233
v 0.560930 -0.169411 -0.196233
v -0.560930 -0.169411 0.196233
v -0.083004 -0.169411 0.196233
v 0.293341 -0.169411 0.196233
v 0.560930 -0.110191 0.196233
v 0.560930 -0.056470 -0.196233
v 0.560930 -0.056470 0.196233
v 0.560930 0.056470 -0.196233
v 0.560930 0.056470 0.196233
v -0.560930 -0.056470 -0.196233
v -0.593473 -0.056470 0.196233
v -0.524874 0.056470 -0.196233
v -0.560930 0.056470 0.196233
vt 0.375000 0.000000
vt 0.458333 0.000000
vt 0.541667 0.000000
vt 0.625000 0.000000
vt 0.375000 0.083333
vt 0.458333 0.083333
vt 0.541667 0.083333
vt 0.625000 0.083333
vt 0.375000 0.166667
vt 0.458333 0.166667
vt 0.541667 0.166667
vt 0.625000 0.166667
vt 0.375000 0.250000
vt 0.458333 0.250000
vt 0.541667 0.250000
vt 0.625000 0.250000
vt 0.375000 0.333333
vt 0.458333 0.333333
vt 0.541667 0.333333
vt 0.625000 0.333333
vt 0.375000 0.416667
vt 0.458333 0.416667
vt 0.541667 0.416667
vt 0.625000 0.416667
vt 0.375000 0.500000
vt 0.458333 0.500000
vt 0.541667 0.500000
vt 0.625000 0.500000
vt 0.375000 0.583333
vt 0.458333 0.583333
vt 0.541667 0.583333
vt 0.625000 0.583333
vt 0.375000 0.666667
vt 0.458333 0.666667
vt 0.541667 0.666667
vt 0.625000 0.666667
vt 0.375000 0.750000
vt 0.458333 0.750000
vt 0.541667 0.750000
vt 0.625000 0.750000
vt 0.375000 0.833333
vt 0.458333 0.833333
vt 0.541667 0.833333
vt 0.625000 0.833333
vt 0.375000 0.916667
vt 0.458333 0.916667
vt 0.541667 0.916667
vt 0.625000 0.916667
vt 0.375000 1.000000
vt 0.458333 1.000000
vt 0.541667 1.000000
vt 0.625000 1.000000
vt 0.875000 0.000000
vt 0.791667 0.000000
vt 0.708333 0.000000
vt 0.875000 0.083333
vt 0.791667 0.083333
vt 0.708333 0.083333
vt 0.875000 0.166667
vt 0.791667 0.166667
vt 0.708333 0.166667
vt 0.875000 0.250000
vt 0.791667 0.250000
vt 0.708333 0.250000
vt 0.125000 0.000000
vt 0.208333 0.000000
vt 0.291667 0.000000
vt 0.125000 0.083333
vt 0.208333 0.083333
vt 0.291667 0.083333
vt 0.125000 0.166667
vt 0.208333 0.166667
vt 0.291667 0.166667
vt 0.125000 0.250000
vt 0.208333 0.250000
vt 0.291667 0.250000
vn -0.126128 0.191252 0.973404
vn -0.088555 0.049906 0.994820
vn -0.156733 0.032446 0.987108
vn -0.086200 -0.007184 0.996252
vn 0.055396 -0.229157 0.971812
vn 0.010385 0.029406 0.999514
vn 0.162223 -0.671064 0.723434
vn 0.052802 -0.082881 0.995160
vn -0.160854 0.334674 0.928504
vn -0.091689 0.267867 0.959083
vn 0.024085 0.124232 0.991961
vn 0.074974 0.224756 0.971526
vn -0.156437 0.696233 0.700562
vn -0.134144 0.402779 0.905414
vn -0.009943 0.000000 0.999951
vn 0.249547 0.276335 0.928097
vn -0.045232 0.986182 0.159373
vn -0.001683 0.999998 -0.000587
vn -0.095885 0.968188 0.231124
vn -0.083000 0.996463 0.013132
vn 0.007849 0.998579 0.052706
vn 0.013541 0.999509 0.028250
vn 0.099770 0.991135 0.087740
vn 0.090366 0.995854 -0.010438
vn -0.052265 0.998413 -0.020995
vn -0.104957 0.994295 -0.019019
vn 0.054126 0.998532 -0.001918
vn 0.378400 0.925189 -0.028944
vn -0.034288 0.990112 0.136025
vn -0.019428 0.997942 0.061115
vn 0.039976 0.999201 0.000000
vn 0.203497 0.975341 0.085430
vn -0.207130 0.207272 -0.956105
vn -0.087798 0.021206 -0.995913
vn -0.164476 0.187027 -0.968488
vn -0.074358 0.057895 -0.995550
vn 0.116232 0.000000 -0.993222
vn -0.000153 0.103191 -0.994662
vn 0.150424 0.439834 -0.885392
vn -0.123842 0.448680 -0.885070
vn -0.114987 -0.161579 -0.980138
vn -0.073439 -0.073093 -0.994618
vn -0.006577 -0.073627 -0.997264
vn -0.070216 -0.282221 -0.956777
vn -0.177540 -0.446479 -0.877004
vn -0.109933 0.000000 -0.993939
vn 0.078764 0.000000 -0.996893
vn 0.093198 -0.222805 -0.970398
vn -0.070865 -0.997486 0.000000
vn -0.020510 -0.999571 -0.020910
vn -0.066549 -0.991667 -0.110306
vn 0.000000 -0.997735 -0.067265
vn 0.000000 -1.000000 0.000000
vn 0.000000 -1.000000 0.000000
vn 0.000000 -1.000000 0.000000
vn 0.056803 -0.997634 0.038729
vn 0.000000 -0.999589 0.028669
vn 0.000374 -0.999458 0.032905
vn 0.064197 -0.996055 0.061270
vn 0.215593 -0.974187 0.066930
vn 0.001087 -0.997748 0.067071
vn 0.025530 -0.995432 0.091998
vn 0.037502 -0.987529 0.152906
vn 0.040555 -0.996443 0.073875
vn 0.997436 0.000000 -0.071569
vn 0.976005 -0.210328 -0.056355
vn 0.998275 -0.057143 -0.013476
vn 0.984287 -0.176579 0.000000
vn 0.997432 0.000000 0.071626
vn 0.994312 -0.090416 0.056286
vn 0.953470 -0.267003 0.140013
vn 0.939288 -0.319981 0.123899
vn 0.957027 0.288878 0.025471
vn 1.000000 0.000000 0.000000
vn 0.985123 0.168012 0.036112
vn 0.898350 0.433564 0.070631
vn 0.991612 0.124637 0.034228
vn 0.711127 0.701989 0.038857
vn 0.991510 0.000000 0.130029
vn 0.798365 0.564265 0.210284
vn -0.987433 0.000000 -0.158040
vn -0.987328 0.024218 -0.156833
vn -0.830872 -0.462830 -0.308932
vn -0.963187 -0.208918 -0.169184
vn -0.978043 -0.201394 0.053599
vn -0.996658 0.025717 0.077539
vn -0.968517 -0.015129 0.248486
vn -0.928859 0.147442 0.339826
vn -0.807595 0.585074 -0.074022
vn -0.964740 0.263175 0.003864
vn -0.926370 0.375840 0.024155
vn -0.904390 0.329143 0.271557
vn -0.654527 0.753715 -0.059219
vn -0.981559 -0.044305 0.185953
vn -0.955383 0.289364 -0.059264
vn -0.835737 0.463211 0.294922
s 1
g pCube1
usemtl lambert4SG
f 1/1/1 2/2/2 5/5/3
f 5/5/3 2/2/2 6/6/4
f 2/2/2 3/3/5 6/6/4
f 6/6/4 3/3/5 7/7/6
f 4/4/7 8/8/8 3/3/5
f 3/3/5 8/8/8 7/7/6
f 5/5/3 6/6/4 9/9/9
f 9/9/9 6/6/4 10/10/10
f 6/6/4 7/7/6 10/10/10
f 10/10/10 7/7/6 11/11/11
f 8/8/8 12/12/12 7/7/6
f 7/7/6 12/12/12 11/11/11
f 9/9/9 10/10/10 13/13/13
f 13/13/13 10/10/10 14/14/14
f 10/10/10 11/11/11 14/14/14
f 14/14/14 11/11/11 15/15/15
f 12/12/12 16/16/16 11/11/11
f 11/11/11 16/16/16 15/15/15
s 2
f 14/14/17 18/18/18 13/13/19
f 13/13/19 18/18/18 17/17/20
f 15/15/21 19/19/22 14/14/17
f 14/14/17 19/19/22 18/18/18
f 15/15/21 16/16/23 19/19/22
f 19/19/22 16/16/23 20/20/24
f 18/18/18 22/22/25 17/17/20
f 17/17/20 22/22/25 21/21/26
f 18/18/18 19/19/22 22/22/25
f 22/22/25 19/19/22 23/23/27
f 19/19/22 20/20/24 23/23/27
f 23/23/27 20/20/24 24/24/28
f 21/21/26 22/22/25 25/25/29
f 25/25/29 22/22/25 26/26/30
f 22/22/25 23/23/27 26/26/30
f 26/26/30 23/23/27 27/27/31
f 24/24/28 28/28/32 23/23/27
f 23/23/27 28/28/32 27/27/31
s 4
f 25/25/33 26/26/34 29/29/35
f 29/29/35 26/26/34 30/30/36
f 26/26/34 27/27/37 30/30/36
f 30/30/36 27/27/37 31/31/38
f 27/27/37 28/28/39 31/31/38
f 31/31/38 28/28/39 32/32/40
f 29/29/35 30/30/36 33/33/41
f 33/33/41 30/30/36 34/34/42
f 30/30/36 31/31/38 34/34/42
f 34/34/42 31/31/38 35/35/43
f 32/32/40 36/36/44 31/31/38
f 31/31/38 36/36/44 35/35/43
f 33/33/41 34/34/42 37/37/45
f 37/37/45 34/34/42 38/38/46
f 34/34/42 35/35/43 38/38/46
f 38/38/46 35/35/43 39/39/47
f 36/36/44 40/40/48 35/35/43
f 35/35/43 40/40/48 39/39/47
s 5
f 38/38/49 42/42/50 37/37/51
f 37/37/51 42/42/50 41/41/52
f 38/38/49 39/39/53 42/42/50
f 42/42/50 39/39/53 43/43/54
f 39/39/53 40/40/55 43/43/54
f 43/43/54 40/40/55 44/44/56
f 41/41/52 42/42/50 45/45/57
f 45/45/57 42/42/50 46/46/58
f 42/42/50 43/43/54 46/46/58
f 46/46/58 43/43/54 47/47/59
f 43/43/54 44/44/56 47/47/59
f 47/47/59 44/44/56 48/48/60
f 45/45/57 46/46/58 1/49/61
f 1/49/61 46/46/58 2/50/62
f 46/46/58 47/47/59 2/50/62
f 2/50/62 47/47/59 3/51/63
f 48/48/60 4/52/64 47/47/59
f 47/47/59 4/52/64 3/51/63
s 6
f 44/54/65 40/53/66 49/57/67
f 49/57/67 40/53/66 36/56/68
f 44/54/65 49/57/67 48/55/69
f 48/55/69 49/57/67 50/58/70
f 48/55/69 50/58/70 4/4/71
f 4/4/71 50/58/70 8/8/72
f 49/57/67 36/56/68 51/60/73
f 51/60/73 36/56/68 32/59/74
f 50/58/70 49/57/67 52/61/75
f 52/61/75 49/57/67 51/60/73
f 8/8/72 50/58/70 12/12/76
f 12/12/76 50/58/70 52/61/75
f 32/59/74 28/62/77 51/60/73
f 51/60/73 28/62/77 24/63/78
f 51/60/73 24/63/78 52/61/75
f 52/61/75 24/63/78 20/64/79
f 12/12/76 52/61/75 16/16/80
f 16/16/80 52/61/75 20/64/79
s 7
f 41/66/81 53/69/82 37/65/83
f 37/65/83 53/69/82 33/68/84
f 41/66/81 45/67/85 53/69/82
f 53/69/82 45/67/85 54/70/86
f 45/67/85 1/1/87 54/70/86
f 54/70/86 1/1/87 5/5/88
f 53/69/82 55/72/89 33/68/84
f 33/68/84 55/72/89 29/71/90
f 54/70/86 56/73/91 53/69/82
f 53/69/82 56/73/91 55/72/89
f 5/5/88 9/9/92 54/70/86
f 54/70/86 9/9/92 56/73/91
f 55/72/89 21/75/93 29/71/90
f 29/71/90 21/75/93 25/74/94
f 55/72/89 56/73/91 21/75/93
f 21/75/93 56/73/91 17/76/95
f 9/9/92 13/13/96 56/73/91
f 56/73/91 13/13/96 17/76/95
